<svg id="Layer_1" data-name="Layer 1" xmlns="http://www.w3.org/2000/svg" viewBox="0 0 730.85 276.89"><defs><style>.cls-1{fill:#3631ff;}.cls-2{fill:#0bcffc;}</style></defs><polygon class="cls-1" points="573.16 71.89 573.16 93.21 595.8 93.21 601.19 93.21 658.95 93.21 658.95 71.89 573.16 71.89"/><polygon class="cls-1" points="595.8 146.41 595.8 125.09 595.8 118.16 573.16 118.16 573.16 203.95 658.95 203.95 658.95 182.63 595.8 182.63 595.8 146.41"/><circle class="cls-2" cx="640.99" cy="136.13" r="17.97"/><polygon class="cls-2" points="573.16 203.95 595.8 182.63 658.95 182.63 658.95 203.95 573.16 203.95"/><path class="cls-1" d="M155.57,206.22q-18.49,0-29.25-13.4t-10.75-37.16q0-23.21,11.13-36.79t28.87-13.59q14,0,21.69,9.06V71.89h22.08V204H177.26v-7Q170.09,206.22,155.57,206.22ZM159,185.09q12.27,0,18.3-9.25V135.47q-6.22-9.24-18.3-9.24-10.19,0-15.75,7.64t-5.57,21.79q0,13.4,5.66,21.41A18.11,18.11,0,0,0,159,185.09Z"/><path class="cls-1" d="M262.65,206.22q-20.56,0-32.54-13.49t-12-37.07q0-23.4,12.07-36.89t32.45-13.49q18.48,0,30.28,11.51t11.79,33.77a108.2,108.2,0,0,1-.75,13.59H240q.57,10.18,7.08,16.41a21.71,21.71,0,0,0,15.56,6.23q12.83,0,20.37-10l14,14.33Q284.35,206.23,262.65,206.22ZM240.2,145.85h42.64q-.76-10.38-6.42-15.76a19.26,19.26,0,0,0-13.77-5.37q-9.43,0-15.56,5.18T240.2,145.85Z"/><path class="cls-1" d="M382.18,204V148.68q0-22.45-17.92-22.45-19.62,0-19.62,22.07V204H322.57v-96.4h22.07v9q9.44-11.31,25.47-11.32,15.09,0,24.62,9.44t9.53,30V204Z"/><polygon class="cls-1" points="71.89 203.95 94.53 203.95 94.53 71.89 71.89 94.53 71.89 203.95"/><path class="cls-2" d="M525,71.89l-34.15,77.54q-2.07,5.28-3.58,9.81-1.51-4.53-3.59-9.81L449.76,71.89H426.93V204h22.64V133.77a153.27,153.27,0,0,0-.76-15.85q2.83,8.31,6.23,15.85l21.63,48.86h20.94l21.57-48.48q3.78-9.44,6-16.23a153.27,153.27,0,0,0-.76,15.85V204H547.1V71.89Z"/><polygon class="cls-1" points="665.77 80.08 665.77 73.09 663.57 73.09 663.57 71.89 669.22 71.89 669.22 73.09 667.05 73.09 667.05 80.08 665.77 80.08"/><polygon class="cls-1" points="676.93 80.08 675.67 80.08 675.67 75.27 675.41 75.89 673.47 80.22 671.51 75.89 671.24 75.23 671.24 80.08 669.98 80.08 669.98 71.89 671.12 71.89 673.28 76.72 673.45 77.21 673.65 76.72 675.8 71.89 676.93 71.89 676.93 80.08"/></svg>