<svg id="Layer_1" data-name="Layer 1" xmlns="http://www.w3.org/2000/svg" viewBox="0 0 546.93 276.89"><defs><style>.cls-1{fill:#3631ff;}.cls-2{fill:#0bcffc;}</style></defs><path class="cls-1" d="M127.56,71.89h40.76a74.28,74.28,0,0,1,24.35,3.78,54.21,54.21,0,0,1,18.11,10,55,55,0,0,1,12,14.81,68.09,68.09,0,0,1,7,17.93,88.21,88.21,0,0,1,.19,38,66.82,66.82,0,0,1-6.79,17.83,58.47,58.47,0,0,1-12,15.29A53.4,53.4,0,0,1,192.76,200a75.36,75.36,0,0,1-25.19,4h-40Zm43.22,110.78a37.81,37.81,0,0,0,17.64-4A30.16,30.16,0,0,0,200.31,168a50.2,50.2,0,0,0,6.23-14.25,62.18,62.18,0,0,0,2-15.85q0-18.5-9.06-31.61T172.85,93.22H150.21v89.45Z"/><path class="cls-1" d="M474,204H453.46l-54.72-83.41a82.18,82.18,0,0,1-5.48-9.81,78.79,78.79,0,0,1,.57,9.81V204H371.37V71.89h21.89L446.67,154a105.6,105.6,0,0,1,5.47,10,92.43,92.43,0,0,1-.56-10V71.89H474Z"/><polygon class="cls-1" points="259.29 71.89 259.29 93.22 281.93 93.22 287.32 93.22 345.11 93.22 345.11 71.89 259.29 71.89"/><polygon class="cls-1" points="259.29 203.99 259.29 118.17 281.93 118.17 281.93 182.67 259.29 203.99"/><circle class="cls-2" cx="327.13" cy="136.15" r="17.97"/><polygon class="cls-2" points="259.29 203.99 281.93 182.67 345.11 182.67 345.11 203.99 259.29 203.99"/><polygon class="cls-1" points="71.89 94.54 71.89 203.99 94.54 203.99 94.54 71.89 71.89 94.54"/></svg>